<?xml version="1.0" encoding="iso-8859-1"?>
<!-- Generator: Adobe Illustrator 19.0.0, SVG Export Plug-In . SVG Version: 6.00 Build 0)  -->
<svg version="1.1" id="Layer_1" xmlns="http://www.w3.org/2000/svg" xmlns:xlink="http://www.w3.org/1999/xlink" x="0px" y="0px"
	 viewBox="0 0 512 512" style="enable-background:new 0 0 512 512;" xml:space="preserve">
<g>
	<g>
		<g>
			<path d="M421.094,330.187h-52.245v-51.773c0-5.771-4.679-10.449-10.449-10.449c-5.77,0-10.449,4.678-10.449,10.449v51.773
				h-52.245c-5.77,0-10.449,4.678-10.449,10.449c0,5.771,4.679,10.449,10.449,10.449h52.245v52.717
				c0,5.771,4.679,10.449,10.449,10.449c5.77,0,10.449-4.678,10.449-10.449v-52.717h52.245c5.77,0,10.449-4.678,10.449-10.449
				C431.543,334.865,426.864,330.187,421.094,330.187z"/>
			<path d="M512,199.597c0-92.36-70.535-167.499-157.234-167.499c-36.085,0-70.798,13.133-98.766,37.18
				c-27.969-24.045-62.681-37.18-98.766-37.18C70.535,32.097,0,107.236,0,199.597c0,66.502,41.049,132.214,122.008,195.308
				c54.674,42.609,108.875,69.129,111.156,70.238l18.268,8.88c1.443,0.701,3.005,1.051,4.568,1.051c1.563,0,3.125-0.35,4.568-1.051
				l18.268-8.88c0.52-0.253,3.757-1.837,9.076-4.627c20.713,12.306,44.877,19.386,70.669,19.386
				c76.523,0,138.78-62.257,138.78-138.781c0-18.502-3.649-36.165-10.249-52.321C503.662,259.337,512,229.547,512,199.597z
				 M256,452.919l-13.702-6.748c-0.001,0-0.001,0-0.002,0c-2.199-1.045-54.484-26.564-107.442-67.837
				C59.237,319.404,20.898,259.207,20.898,199.478c0-80.836,61.16-146.543,136.336-146.543c33.817,0,66.308,13.501,91.486,37.958
				c4.055,3.939,10.506,3.956,14.562,0.017c25.178-24.457,57.668-37.914,91.486-37.914c75.174,0.001,136.334,65.779,136.334,146.616
				c0,22.142-5.298,44.35-15.785,66.531c-4.339-6.734-9.249-13.065-14.655-18.936c6.338-16.067,9.542-31.979,9.542-47.611
				c0-69.313-51.785-125.703-115.438-125.703c-40.807,0-78.131,23.572-98.766,60.596c-20.635-37.024-57.959-60.596-98.766-60.596
				c-63.653,0-115.438,56.391-115.438,125.703c0,29.53,11.39,60.061,33.855,90.745c17.471,23.864,41.711,47.952,72.048,71.596
				c45.817,35.706,90.97,59.208,101.502,64.506c5.827,7.453,12.401,14.176,19.603,20.3L256,452.919z M229.328,391.659
				C173.561,359.012,62.694,283.543,62.694,199.597c0-57.79,42.41-104.805,94.54-104.805c39.574,0,75.277,27.692,88.84,68.908
				c1.411,4.286,5.414,7.183,9.925,7.183c4.512,0,8.515-2.896,9.925-7.183c13.564-41.216,49.266-68.908,88.84-68.908
				c52.13,0,94.54,47.016,94.54,104.805c0,10.918-1.88,21.693-5.266,32.25c-23.575-18.478-53.252-29.508-85.459-29.508
				c-76.524,0-138.781,62.257-138.781,138.781C219.799,358.943,223.18,375.99,229.328,391.659z M358.581,459.004
				c-65.001,0-117.883-52.882-117.883-117.883s52.882-117.883,117.883-117.883s117.882,52.882,117.882,117.883
				S423.582,459.004,358.581,459.004z"/>
		</g>
	</g>
</g>
<g>
</g>
<g>
</g>
<g>
</g>
<g>
</g>
<g>
</g>
<g>
</g>
<g>
</g>
<g>
</g>
<g>
</g>
<g>
</g>
<g>
</g>
<g>
</g>
<g>
</g>
<g>
</g>
<g>
</g>
</svg>
