<?xml version='1.0' encoding='iso-8859-1'?>
<svg version="1.1" xmlns="http://www.w3.org/2000/svg" viewBox="0 0 463 463" xmlns:xlink="http://www.w3.org/1999/xlink" enable-background="new 0 0 463 463">
  <g>
    <g>
      <path d="m274.997,247.787l.968-15.482c12.641,4.443 25.888,6.695 39.535,6.695 65.893,0 119.5-53.607 119.5-119.5s-53.607-119.5-119.5-119.5c-63.373,0-115.373,49.589-119.258,112h-37.133c-17.716,0-34.151,7.11-46.281,20.022-12.129,12.911-18.2,29.759-17.095,47.438l4.27,68.326c0.08,29.568 12.534,56.017 31.997,73.49v11.953l-13.183,19.774-61.711,16.831c-17.137,4.674-29.106,20.344-29.106,38.107v31.559c0,12.958 10.542,23.5 23.5,23.5h272c12.958,0 23.5-10.542 23.5-23.5v-31.559c0-17.764-11.969-33.434-29.106-38.107l-61.711-16.831-13.183-19.774v-11.953c19.463-17.472 31.916-43.921 31.997-73.489zm-87.497,117.95l-39.929-33.274c11.978,6.732 25.554,10.537 39.929,10.537s27.951-3.805 39.929-10.537l-39.929,33.274zm-46.39-19.133l35.279,29.399-19.293,19.292c-0.05,0.05-0.174,0.163-0.402,0.145-0.235-0.023-0.328-0.161-0.367-0.22l-23.813-35.72 8.596-12.896zm46.39,76.396c0.629,0 1.25-0.032 1.866-0.081l5.145,25.081h-14.022l5.145-25.081c0.616,0.049 1.237,0.081 1.866,0.081zm8.5-23.5c0,4.687-3.813,8.5-8.5,8.5s-8.5-3.813-8.5-8.5v-4.893l8.5-8.5 8.5,8.5v4.893zm2.61-23.496l35.279-29.399 8.597,12.896-23.813,35.72c-0.039,0.06-0.132,0.197-0.367,0.221-0.226,0.017-0.353-0.095-0.402-0.145l-19.294-19.293zm116.89-361.004c57.621,0 104.5,46.879 104.5,104.5s-46.879,104.5-104.5,104.5c-13.381,0-26.319-2.475-38.558-7.348l2.324-37.192c1.105-17.68-4.966-34.527-17.095-47.438-12.129-12.912-28.565-20.022-46.28-20.022h-4.619c3.858-54.134 49.129-97 104.228-97zm-191.739,127.293c9.265-9.862 21.818-15.293 35.349-15.293h56.781c13.53,0 26.084,5.431 35.349,15.293 9.264,9.861 13.9,22.729 13.057,36.232l-1.411,22.572c-6.35-12.898-12.925-21.505-13.455-22.188-2.059-2.658-5.636-3.624-8.746-2.36-37.673,15.26-108.475,15.451-109.186,15.451-1.68,0-3.312,0.564-4.633,1.603-0.523,0.411-7.453,5.976-14.19,16.481l-1.972-31.558c-0.844-13.505 3.793-26.372 13.057-36.233zm-8.753,105.54c2.254-22.347 14.741-36.357 19.387-40.856 13.492-0.171 69.594-1.655 106.308-14.421 6.17,9.301 19.297,31.81 19.297,54.944 0,44.388-32.523,80.5-72.5,80.5-39.876,0-72.329-35.932-72.492-80.167zm-72.008,191.667v-31.559c0-11.018 7.424-20.737 18.054-23.637l59.204-16.147 23.589,35.384c2.587,3.879 6.731,6.366 11.37,6.826 0.517,0.051 1.031,0.076 1.544,0.076 3.135,0 6.165-0.953 8.731-2.713 1.305,3.477 3.41,6.565 6.092,9.038l-6.407,31.232h-66.177v-24.5c0-4.143-3.357-7.5-7.5-7.5s-7.5,3.357-7.5,7.5v24.5h-32.5c-4.687,0-8.5-3.813-8.5-8.5zm289-31.559v31.559c0,4.687-3.813,8.5-8.5,8.5h-32.5v-24.5c0-4.143-3.357-7.5-7.5-7.5s-7.5,3.357-7.5,7.5v24.5h-66.177l-6.406-31.23c2.682-2.474 4.787-5.561 6.092-9.038 2.566,1.76 5.595,2.713 8.731,2.713 0.513,0 1.028-0.025 1.544-0.076 4.639-0.46 8.783-2.947 11.37-6.827l23.589-35.383 59.204,16.147c10.629,2.898 18.053,12.618 18.053,23.635z"/>
      <path d="m307.5,176c-4.143,0-7.5,3.357-7.5,7.5s3.357,7.5 7.5,7.5h16c4.143,0 7.5-3.357 7.5-7.5s-3.357-7.5-7.5-7.5h-0.5v-65h0.5c4.143,0 7.5-3.357 7.5-7.5s-3.357-7.5-7.5-7.5h-16c-4.143,0-7.5,3.357-7.5,7.5s3.357,7.5 7.5,7.5h0.5v65h-0.5z"/>
      <path d="M315.5,78c7.995,0,14.5-6.505,14.5-14.5S323.495,49,315.5,49S301,55.505,301,63.5S307.505,78,315.5,78z"/>
    </g>
  </g>
</svg>
